<svg width="32" height="20" viewBox="0 0 32 20" fill="none" xmlns="http://www.w3.org/2000/svg">
<path d="M28.7939 1.32399H20.8319V3.25545H28.7939V1.32399ZM24.8675 7.9595C23.9326 7.9595 23.1743 8.23209 22.5926 8.77726C22.0109 9.32243 21.6889 10.0623 21.6266 10.9969H27.9837C27.7967 8.97196 26.758 7.9595 24.8675 7.9595ZM25.1167 17.0717C25.7712 17.0717 26.4048 16.9055 27.0176 16.5732C27.6305 16.2409 28.0252 15.7892 28.2018 15.2181H31.6452C30.6065 18.406 28.3888 20 24.9921 20C22.7692 20 21.0007 19.3146 19.6867 17.9439C18.3727 16.5732 17.7157 14.7715 17.7157 12.5389C17.7157 10.379 18.3935 8.58515 19.7491 7.15732C21.1046 5.72949 22.8523 5.01558 24.9921 5.01558C26.4256 5.01558 27.6746 5.36864 28.7394 6.07477C29.8041 6.78089 30.5987 7.71028 31.1233 8.86293C31.6478 10.0156 31.9101 11.3032 31.9101 12.7259C31.9101 12.9024 31.8997 13.1464 31.879 13.4579H21.6266C21.6266 14.6106 21.9252 15.501 22.5225 16.1293C23.1198 16.7575 23.9845 17.0717 25.1167 17.0717ZM4.31597 16.2928H8.92798C11.0574 16.2928 12.1221 15.4258 12.1221 13.6916C12.1221 11.8224 11.0886 10.8879 9.02146 10.8879H4.31597V16.2928ZM4.31597 7.92835H8.69426C9.50448 7.92835 10.1459 7.73884 10.6185 7.35981C11.0912 6.98079 11.3275 6.39149 11.3275 5.5919C11.3275 4.09657 10.3407 3.34891 8.36706 3.34891H4.31597V7.92835ZM0 0H9.25518C10.1589 0 10.9639 0.0726895 11.6703 0.218069C12.3766 0.363448 13.0336 0.610073 13.6413 0.957944C14.2489 1.30582 14.7164 1.80685 15.0436 2.46106C15.3708 3.11526 15.5344 3.91485 15.5344 4.85981C15.5344 6.73936 14.641 8.10488 12.8544 8.95639C14.0386 9.28868 14.9319 9.88577 15.5344 10.7477C16.1368 11.6096 16.4381 12.6687 16.4381 13.9252C16.4381 14.7041 16.3108 15.4128 16.0563 16.0514C15.8018 16.69 15.4591 17.2274 15.028 17.6636C14.5969 18.0997 14.0853 18.4683 13.4932 18.7695C12.9012 19.0706 12.2727 19.2887 11.6079 19.4237C10.9431 19.5587 10.2472 19.6262 9.52006 19.6262H0V0Z" fill="#BC9144"/>
</svg>
