<svg width="24" height="15" viewBox="0 0 24 15" fill="none" xmlns="http://www.w3.org/2000/svg">
<path d="M21.1557 1.15991H15.3373V2.57137H21.1557V1.15991ZM18.2864 6.00894C17.6032 6.00894 17.0491 6.20814 16.624 6.60653C16.1989 7.00493 15.9636 7.54561 15.918 8.22857H20.5636C20.427 6.74882 19.6679 6.00894 18.2864 6.00894ZM18.4685 12.6678C18.9468 12.6678 19.4098 12.5464 19.8576 12.3036C20.3055 12.0607 20.594 11.7306 20.723 11.3133H23.2393C22.4803 13.6429 20.8596 14.8078 18.3774 14.8078C16.753 14.8078 15.4607 14.3069 14.5004 13.3053C13.5402 12.3036 13.0601 10.987 13.0601 9.35545C13.0601 7.77705 13.5554 6.46615 14.546 5.42273C15.5366 4.37932 16.8137 3.85761 18.3774 3.85761C19.425 3.85761 20.3378 4.11562 21.1158 4.63164C21.8939 5.14765 22.4746 5.82682 22.8579 6.66914C23.2412 7.51146 23.4329 8.45243 23.4329 9.49205C23.4329 9.62105 23.4253 9.79938 23.4101 10.027H15.918C15.918 10.8694 16.1363 11.5201 16.5727 11.9792C17.0092 12.4383 17.6411 12.6678 18.4685 12.6678ZM3.26796 12.0987H6.63827C8.19439 12.0987 8.97244 11.465 8.97244 10.1978C8.97244 8.83185 8.21716 8.14889 6.70659 8.14889H3.26796V12.0987ZM3.26796 5.98618H6.46748C7.05956 5.98618 7.52829 5.84769 7.87368 5.57071C8.21906 5.29373 8.39175 4.86308 8.39175 4.27877C8.39175 3.18603 7.67062 2.63966 6.22837 2.63966H3.26796V5.98618ZM0.113983 0.192383H6.87738C7.53778 0.192383 8.12607 0.245502 8.64224 0.351741C9.15842 0.457979 9.63854 0.638205 10.0826 0.892419C10.5267 1.14663 10.8682 1.51278 11.1074 1.99085C11.3465 2.46892 11.466 3.05323 11.466 3.74378C11.466 5.1173 10.8132 6.11518 9.5076 6.73743C10.3729 6.98027 11.0258 7.4166 11.466 8.04644C11.9063 8.67629 12.1264 9.45031 12.1264 10.3685C12.1264 10.9376 12.0334 11.4556 11.8475 11.9223C11.6615 12.3889 11.411 12.7816 11.096 13.1004C10.781 13.4191 10.4071 13.6885 9.97443 13.9085C9.54175 14.1286 9.08251 14.288 8.5967 14.3866C8.11089 14.4853 7.6023 14.5346 7.07095 14.5346H0.113983V0.192383Z" fill="#A9A9A9"/>
</svg>
