<svg width="25" height="25" viewBox="0 0 25 25" fill="none" xmlns="http://www.w3.org/2000/svg">
<path d="M12.4966 6.08629C8.94743 6.08629 6.08305 8.95073 6.08305 12.5C6.08305 16.0493 8.94743 18.9137 12.4966 18.9137C16.0458 18.9137 18.9102 16.0493 18.9102 12.5C18.9102 8.95073 16.0458 6.08629 12.4966 6.08629ZM12.4966 16.6684C10.2014 16.6684 8.32828 14.7953 8.32828 12.5C8.32828 10.2047 10.2014 8.33156 12.4966 8.33156C14.7919 8.33156 16.665 10.2047 16.665 12.5C16.665 14.7953 14.7919 16.6684 12.4966 16.6684ZM19.1729 4.32885C18.3442 4.32885 17.675 4.99806 17.675 5.82674C17.675 6.65543 18.3442 7.32463 19.1729 7.32463C20.0016 7.32463 20.6708 6.65855 20.6708 5.82674C20.671 5.62997 20.6324 5.43508 20.5572 5.25323C20.4821 5.07139 20.3717 4.90617 20.2326 4.76702C20.0935 4.62788 19.9282 4.51756 19.7464 4.44237C19.5646 4.36718 19.3697 4.32861 19.1729 4.32885ZM24.9986 12.5C24.9986 10.7738 25.0142 9.0633 24.9173 7.34026C24.8204 5.33891 24.3638 3.56271 22.9004 2.09922C21.4338 0.632607 19.6607 0.179176 17.6594 0.082235C15.9333 -0.0147055 14.2228 0.000930141 12.4998 0.000930141C10.7736 0.000930141 9.06313 -0.0147055 7.34013 0.082235C5.33881 0.179176 3.56265 0.635734 2.09918 2.09922C0.632595 3.56584 0.179172 5.33891 0.0822335 7.34026C-0.0147052 9.06643 0.000930124 10.777 0.000930124 12.5C0.000930124 14.223 -0.0147052 15.9367 0.0822335 17.6597C0.179172 19.6611 0.635722 21.4373 2.09918 22.9008C3.56577 24.3674 5.33881 24.8208 7.34013 24.9178C9.06626 25.0147 10.7768 24.9991 12.4998 24.9991C14.2259 24.9991 15.9364 25.0147 17.6594 24.9178C19.6607 24.8208 21.4369 24.3643 22.9004 22.9008C24.3669 21.4342 24.8204 19.6611 24.9173 17.6597C25.0174 15.9367 24.9986 14.2262 24.9986 12.5ZM22.2468 19.8737C22.0185 20.4429 21.7433 20.8682 21.3024 21.306C20.8615 21.7469 20.4394 22.0221 19.8702 22.2503C18.2254 22.9039 14.3197 22.7569 12.4966 22.7569C10.6736 22.7569 6.76475 22.9039 5.11992 22.2535C4.55079 22.0252 4.12551 21.75 3.68773 21.3091C3.24681 20.8682 2.97163 20.446 2.74336 19.8769C2.09293 18.2289 2.2399 14.3231 2.2399 12.5C2.2399 10.6769 2.09293 6.768 2.74336 5.12314C2.97163 4.55401 3.24681 4.12872 3.68773 3.69092C4.12864 3.25313 4.55079 2.97481 5.11992 2.74654C6.76475 2.0961 10.6736 2.24307 12.4966 2.24307C14.3197 2.24307 18.2285 2.0961 19.8734 2.74654C20.4425 2.97481 20.8678 3.25 21.3056 3.69092C21.7465 4.13185 22.0216 4.55401 22.2499 5.12314C22.9004 6.768 22.7534 10.6769 22.7534 12.5C22.7534 14.3231 22.9004 18.2289 22.2468 19.8737Z" fill="#BC9144"/>
</svg>
