<svg width="19" height="19" viewBox="0 0 19 19" fill="none" xmlns="http://www.w3.org/2000/svg">
<path d="M9.43846 5.17839C6.84481 5.17839 4.75161 7.27163 4.75161 9.86533C4.75161 12.459 6.84481 14.5523 9.43846 14.5523C12.0321 14.5523 14.1253 12.459 14.1253 9.86533C14.1253 7.27163 12.0321 5.17839 9.43846 5.17839ZM9.43846 12.9115C7.76116 12.9115 6.39235 11.5427 6.39235 9.86533C6.39235 8.18799 7.76116 6.81916 9.43846 6.81916C11.1158 6.81916 12.4846 8.18799 12.4846 9.86533C12.4846 11.5427 11.1158 12.9115 9.43846 12.9115ZM14.3173 3.89411C13.7117 3.89411 13.2227 4.38314 13.2227 4.98872C13.2227 5.59429 13.7117 6.08333 14.3173 6.08333C14.9228 6.08333 15.4119 5.59658 15.4119 4.98872C15.412 4.84492 15.3839 4.7025 15.3289 4.56961C15.274 4.43673 15.1933 4.31599 15.0917 4.21431C14.99 4.11263 14.8692 4.03201 14.7364 3.97706C14.6035 3.92212 14.4611 3.89393 14.3173 3.89411ZM18.5745 9.86533C18.5745 8.6039 18.5859 7.3539 18.5151 6.09475C18.4443 4.63223 18.1106 3.33423 17.0412 2.26476C15.9694 1.193 14.6738 0.861649 13.2113 0.790808C11.9499 0.719967 10.6999 0.731393 9.44075 0.731393C8.17934 0.731393 6.92936 0.719967 5.67024 0.790808C4.20774 0.861649 2.90978 1.19529 1.84032 2.26476C0.768586 3.33652 0.437238 4.63223 0.366399 6.09475C0.295559 7.35618 0.306985 8.60618 0.306985 9.86533C0.306985 11.1245 0.295559 12.3768 0.366399 13.6359C0.437238 15.0984 0.770871 16.3964 1.84032 17.4659C2.91206 18.5377 4.20774 18.869 5.67024 18.9398C6.93165 19.0107 8.18163 18.9993 9.44075 18.9993C10.7022 18.9993 11.9521 19.0107 13.2113 18.9398C14.6738 18.869 15.9717 18.5354 17.0412 17.4659C18.1129 16.3941 18.4443 15.0984 18.5151 13.6359C18.5882 12.3768 18.5745 11.1268 18.5745 9.86533ZM16.5636 15.2538C16.3968 15.6697 16.1957 15.9805 15.8735 16.3004C15.5513 16.6227 15.2428 16.8238 14.8269 16.9906C13.6249 17.4682 10.7707 17.3608 9.43846 17.3608C8.10622 17.3608 5.24978 17.4682 4.04778 16.9929C3.63189 16.826 3.3211 16.6249 3.00118 16.3027C2.67898 15.9805 2.47788 15.672 2.31107 15.2561C1.83575 14.0518 1.94316 11.1976 1.94316 9.86533C1.94316 8.53306 1.83575 5.67656 2.31107 4.47455C2.47788 4.05864 2.67898 3.74785 3.00118 3.42793C3.32339 3.108 3.63189 2.90462 4.04778 2.7378C5.24978 2.26248 8.10622 2.36988 9.43846 2.36988C10.7707 2.36988 13.6272 2.26248 14.8291 2.7378C15.245 2.90462 15.5558 3.10571 15.8757 3.42793C16.198 3.75014 16.399 4.05864 16.5659 4.47455C17.0412 5.67656 16.9338 8.53306 16.9338 9.86533C16.9338 11.1976 17.0412 14.0518 16.5636 15.2538Z" fill="#A9A9A9"/>
</svg>
