<svg width="25" height="20" viewBox="0 0 25 20" fill="none" xmlns="http://www.w3.org/2000/svg">
<path d="M24.4987 2.38184C23.58 2.78671 22.607 3.0541 21.6107 3.17543C22.6609 2.54356 23.447 1.5516 23.8237 0.383254C22.8304 0.960762 21.7493 1.37095 20.6236 1.59748C19.8665 0.786554 18.8637 0.248778 17.7706 0.0675855C16.6776 -0.113607 15.5554 0.0719144 14.5783 0.595366C13.6012 1.11882 12.8237 1.95093 12.3665 2.96261C11.9092 3.97429 11.7978 5.10897 12.0495 6.19061C7.86682 5.99452 4.15892 3.97978 1.67906 0.936152C1.22764 1.70581 0.99154 2.58325 0.995625 3.4761C0.99501 4.30611 1.19885 5.12343 1.58904 5.85548C1.97923 6.58753 2.54371 7.21166 3.23233 7.67244C2.43431 7.64826 1.65368 7.43283 0.955739 7.04418V7.10493C0.955495 8.26995 1.35706 9.39923 2.09239 10.3014C2.82771 11.2035 3.85156 11.823 4.9904 12.0549C4.55901 12.1704 4.11453 12.2296 3.66801 12.231C3.34509 12.231 3.03673 12.1994 2.72915 12.1425C3.05325 13.1451 3.68106 14.0214 4.52519 14.6495C5.36933 15.2775 6.38779 15.6262 7.43881 15.6468C5.65804 17.0449 3.46075 17.8034 1.19889 17.8007C0.798269 17.8023 0.397913 17.7797 0 17.733C2.30734 19.2152 4.99068 20.0021 7.73105 20C16.987 20 22.0449 12.314 22.0449 5.6577C22.0449 5.44547 22.0449 5.22938 22.0288 5.01253C23.0182 4.30164 23.8708 3.41685 24.5455 2.40106L24.4987 2.38184Z" fill="#BC9144"/>
</svg>
