<svg width="19" height="15" viewBox="0 0 19 15" fill="none" xmlns="http://www.w3.org/2000/svg">
<path d="M18.0938 1.93296C17.4224 2.22883 16.7114 2.42422 15.9834 2.51289C16.7508 2.05113 17.3253 1.32625 17.6005 0.472453C16.8747 0.894478 16.0847 1.19423 15.262 1.35977C14.7087 0.767172 13.9759 0.374182 13.1771 0.241772C12.3784 0.109362 11.5584 0.244936 10.8443 0.627458C10.1302 1.00998 9.56208 1.61807 9.22794 2.35737C8.89381 3.09667 8.8124 3.92586 8.99633 4.71629C5.93975 4.57299 3.23013 3.10069 1.41793 0.876494C1.08804 1.43894 0.915505 2.08014 0.91849 2.73261C0.918041 3.33916 1.067 3.93643 1.35214 4.47139C1.63728 5.00635 2.04978 5.46244 2.553 5.79917C1.96984 5.78149 1.39938 5.62406 0.889342 5.34005V5.38445C0.889164 6.23581 1.18262 7.06105 1.71997 7.7203C2.25732 8.37956 3.00552 8.83227 3.83775 9.00171C3.5225 9.08615 3.19769 9.12941 2.87139 9.1304C2.6354 9.1304 2.41007 9.10736 2.1853 9.06577C2.42214 9.7984 2.88092 10.4388 3.49779 10.8978C4.11466 11.3567 4.85892 11.6115 5.62697 11.6266C4.32564 12.6483 2.71992 13.2025 1.06703 13.2006C0.774268 13.2018 0.481701 13.1852 0.190918 13.1511C1.87705 14.2343 3.83795 14.8093 5.84053 14.8078C12.6045 14.8078 16.3006 9.19109 16.3006 4.32686C16.3006 4.17176 16.3006 4.01385 16.2889 3.85538C17.0119 3.33589 17.635 2.68931 18.128 1.94701L18.0938 1.93296Z" fill="#A9A9A9"/>
</svg>
